<?xml version="1.0" standalone="no"?>
<!DOCTYPE svg PUBLIC "-//W3C//DTD SVG 20010904//EN"
 "http://www.w3.org/TR/2001/REC-SVG-20010904/DTD/svg10.dtd">
<svg version="1.0" xmlns="http://www.w3.org/2000/svg"
 width="225.000000pt" height="225.000000pt" viewBox="0 0 225.000000 225.000000"
 preserveAspectRatio="xMidYMid meet">
<metadata>
Created by potrace 1.14, written by Peter Selinger 2001-2017
</metadata>
<g transform="translate(0.000000,225.000000) scale(0.100000,-0.100000)"
fill="#000000" stroke="none">
<path d="M995 2239 c-91 -10 -239 -49 -305 -82 l-45 -22 -231 -810 -232 -809
31 -45 c45 -66 162 -185 236 -242 86 -65 264 -153 373 -184 327 -92 697 -26
964 173 342 255 512 660 449 1072 -34 226 -129 428 -276 584 -61 66 -64 67
-71 44 -5 -14 -89 -304 -187 -644 l-178 -619 -154 -92 c-85 -51 -157 -93 -160
-93 -3 0 -46 131 -95 290 l-89 290 -32 -221 c-17 -122 -35 -225 -40 -229 -15
-13 -214 -130 -221 -130 -6 0 -342 472 -350 492 -5 11 131 178 196 242 59 57
46 72 128 -144 l59 -154 26 186 c15 103 32 225 39 271 l12 85 96 69 c105 76
245 163 262 163 5 0 10 -3 10 -6 0 -17 112 -640 116 -643 2 -2 4 3 4 12 0 9
36 187 80 394 55 258 86 382 96 390 20 14 239 86 317 104 32 7 56 17 54 23 -8
24 -150 121 -252 171 -132 66 -250 101 -386 115 -112 11 -129 11 -244 -1z"/>
</g>
</svg>
